<svg width="16" height="16" viewBox="0 0 16 16" fill="none" xmlns="http://www.w3.org/2000/svg">
<path fill-rule="evenodd" clip-rule="evenodd" d="M8 16C12.4183 16 16 12.4183 16 8C16 3.58172 12.4183 0 8 0C3.58172 0 0 3.58172 0 8C0 12.4183 3.58172 16 8 16ZM8.64774 4.30002C8.64774 3.94104 8.35672 3.65002 7.99774 3.65002C7.63875 3.65002 7.34774 3.94104 7.34774 4.30002V7.34734H4.30015C3.94116 7.34734 3.65015 7.63836 3.65015 7.99734C3.65015 8.35633 3.94116 8.64734 4.30015 8.64734H7.34774V11.7003C7.34774 12.0593 7.63875 12.3503 7.99774 12.3503C8.35672 12.3503 8.64774 12.0593 8.64774 11.7003V8.64734H11.7001C12.0591 8.64734 12.3501 8.35633 12.3501 7.99734C12.3501 7.63836 12.0591 7.34735 11.7001 7.34735L8.64774 7.34734V4.30002Z" fill="#9BA0AB"/>
</svg>
