<svg width="16" height="16" viewBox="0 0 16 16" fill="none" xmlns="http://www.w3.org/2000/svg">
<path fill-rule="evenodd" clip-rule="evenodd" d="M7.99631 1.84998C8.3553 1.84998 8.64631 2.14099 8.64631 2.49998L8.64631 7.34579L13.4997 7.34579C13.8587 7.34579 14.1497 7.63681 14.1497 7.99579C14.1497 8.35478 13.8587 8.64579 13.4997 8.64579L8.64631 8.64579L8.64631 13.5C8.64631 13.859 8.3553 14.15 7.99631 14.15C7.63733 14.15 7.34631 13.859 7.34631 13.5V8.64579L2.5001 8.64579C2.14111 8.64579 1.8501 8.35478 1.8501 7.99579C1.8501 7.63681 2.14111 7.34579 2.5001 7.34579L7.34631 7.34579V2.49998C7.34631 2.14099 7.63733 1.84998 7.99631 1.84998Z" fill="#333333"/>
</svg>
