<svg width="16" height="16" viewBox="0 0 16 16" fill="none" xmlns="http://www.w3.org/2000/svg">
<path fill-rule="evenodd" clip-rule="evenodd" d="M3.9201 5.02852C3.9201 2.77599 5.74614 0.949951 7.99867 0.949951C10.2512 0.949951 12.0772 2.77599 12.0772 5.02852C12.0772 6.49228 11.3061 7.7749 10.1501 8.49402V9.44995H12.0001C13.4637 9.44995 14.6501 10.6364 14.6501 12.1V14.1C14.6501 14.4589 14.3591 14.75 14.0001 14.75H2.0001C1.64111 14.75 1.3501 14.4589 1.3501 14.1V12.1C1.3501 10.6364 2.53654 9.44995 4.0001 9.44995H5.8501V8.4958C4.69251 7.77701 3.9201 6.49348 3.9201 5.02852ZM7.99867 2.24995C6.46411 2.24995 5.2201 3.49396 5.2201 5.02852C5.2201 6.12664 5.85705 7.07722 6.78456 7.52867C7.00819 7.63751 7.1501 7.86442 7.1501 8.11312V10.1C7.1501 10.4589 6.85908 10.75 6.5001 10.75H4.0001C3.25451 10.75 2.6501 11.3544 2.6501 12.1V13.45H13.3501V12.1C13.3501 11.3544 12.7457 10.75 12.0001 10.75H9.5001C9.14111 10.75 8.8501 10.4589 8.8501 10.1V8.11173C8.8501 7.86324 8.99176 7.6365 9.21509 7.52754C10.1414 7.07563 10.7772 6.12572 10.7772 5.02852C10.7772 3.49396 9.53323 2.24995 7.99867 2.24995Z" fill="#333333"/>
</svg>
