<svg width="16" height="16" viewBox="0 0 16 16" fill="none" xmlns="http://www.w3.org/2000/svg">
<path d="M7.65 1.69995C5.5237 1.69995 3.8 3.42365 3.8 5.54995C3.8 6.88082 4.47545 8.05311 5.5 8.74405C6.26387 9.34102 6.5 10.2 5.5 10.2H3.65C2.18645 10.2 1 11.3864 1 12.85V13.85C1 14.2089 1.29101 14.5 1.65 14.5H8.92477C8.34444 13.7361 8 12.7833 8 11.75C8 9.7874 9.24253 8.11505 10.9838 7.47668C11.312 6.91018 11.5 6.25214 11.5 5.54995C11.5 3.42365 9.7763 1.69995 7.65 1.69995Z" fill="#333333"/>
<path fill-rule="evenodd" clip-rule="evenodd" d="M15.7998 11.75C15.7998 13.5449 14.3447 15 12.5498 15C10.7549 15 9.2998 13.5449 9.2998 11.75C9.2998 9.95507 10.7549 8.5 12.5498 8.5C14.3447 8.5 15.7998 9.95507 15.7998 11.75ZM12.2998 13.5002C12.1672 13.5002 12.04 13.4475 11.9463 13.3537L10.8954 12.3029C10.7002 12.1076 10.7002 11.7911 10.8954 11.5958C11.0907 11.4005 11.4073 11.4005 11.6025 11.5958L12.2998 12.2931L13.9227 10.6702C14.1179 10.4749 14.4345 10.4749 14.6298 10.6702C14.825 10.8655 14.825 11.1821 14.6298 11.3773L12.6534 13.3537C12.5596 13.4475 12.4324 13.5002 12.2998 13.5002Z" fill="#333333"/>
</svg>
