<svg width="16" height="16" viewBox="0 0 16 16" fill="none" xmlns="http://www.w3.org/2000/svg">
<path d="M8.6521 2.20005C8.6521 1.84106 8.36108 1.55005 8.0021 1.55005C7.64311 1.55005 7.3521 1.84106 7.3521 2.20005L7.3521 12.1245L3.54956 8.32197C3.29572 8.06813 2.88416 8.06813 2.63032 8.32197C2.37648 8.57581 2.37648 8.98737 2.63032 9.24121L7.49175 14.1026C7.61079 14.2533 7.79515 14.35 8.0021 14.35C8.21005 14.35 8.3952 14.2524 8.51418 14.1004L13.3734 9.24121C13.6272 8.98737 13.6272 8.57581 13.3734 8.32197C13.1196 8.06813 12.708 8.06813 12.4542 8.32197L8.6521 12.124L8.6521 2.20005Z" fill="#333333"/>
</svg>
