<svg width="16" height="16" viewBox="0 0 16 16" fill="none" xmlns="http://www.w3.org/2000/svg">
<path d="M13.6213 3.40441C13.8554 3.55314 13.8554 3.89482 13.6213 4.04355L11.3471 5.48829C11.0951 5.64842 10.7655 5.46734 10.7655 5.16872V4.37396L10.7606 4.37397H7.39929L4.51383 8.41361C4.39182 8.58443 4.19482 8.68581 3.9849 8.68581H0.949805C0.59082 8.68581 0.299805 8.39479 0.299805 8.03581C0.299805 7.67683 0.59082 7.38581 0.949805 7.38581H3.6504L6.53586 3.34617C6.65787 3.17535 6.85487 3.07397 7.06479 3.07397H10.7606L10.7655 3.07399V2.27924C10.7655 1.98062 11.0951 1.79954 11.3471 1.95967L13.6213 3.40441Z" fill="#333333"/>
<path d="M7.0651 12.9977C6.85518 12.9977 6.65818 12.8963 6.53617 12.7255L4.98148 10.5489C4.77282 10.2568 4.84048 9.85084 5.1326 9.64218C5.42472 9.43353 5.83067 9.50118 6.03933 9.7933L7.3996 11.6977H10.761L10.7655 11.6977V10.9031C10.7655 10.6045 11.0951 10.4234 11.3471 10.5836L13.6213 12.0283C13.8554 12.177 13.8554 12.5187 13.6213 12.6675L11.3471 14.1122C11.0951 14.2723 10.7655 14.0912 10.7655 13.7926V12.9977L10.761 12.9977H7.0651Z" fill="#333333"/>
</svg>
