<svg width="16" height="16" viewBox="0 0 16 16" fill="none" xmlns="http://www.w3.org/2000/svg">
<path fill-rule="evenodd" clip-rule="evenodd" d="M8 16C12.4183 16 16 12.4183 16 8C16 3.58172 12.4183 0 8 0C3.58172 0 0 3.58172 0 8C0 12.4183 3.58172 16 8 16ZM6.66687 11.127C6.78877 11.2489 6.9541 11.3174 7.12649 11.3174C7.29888 11.3174 7.46421 11.2489 7.58611 11.127L12.8565 5.85657C13.1104 5.60273 13.1104 5.19117 12.8565 4.93733C12.6027 4.68349 12.1911 4.68349 11.9373 4.93733L7.12649 9.74813L4.78394 7.40558C4.5301 7.15174 4.11854 7.15174 3.8647 7.40558C3.61086 7.65942 3.61086 8.07098 3.8647 8.32482L6.66687 11.127Z" fill="#81CB5F"/>
</svg>
