<svg width="24" height="24" viewBox="0 0 24 24" fill="none" xmlns="http://www.w3.org/2000/svg">
<path opacity="0.01" fill-rule="evenodd" clip-rule="evenodd" d="M0 24H24V0H0V24Z" fill="#F2F2F2"/>
<mask id="mask0" mask-type="alpha" maskUnits="userSpaceOnUse" x="0" y="0" width="24" height="24">
<path fill-rule="evenodd" clip-rule="evenodd" d="M0 24H24V0H0V24Z" fill="white"/>
</mask>
<g mask="url(#mask0)">
<path fill-rule="evenodd" clip-rule="evenodd" d="M2.76953 11.9983C2.76953 9.5337 3.72953 7.20662 5.47322 5.47124C9.07415 1.87124 14.9265 1.87124 18.5265 5.47124C20.2711 7.20662 21.2311 9.5337 21.2311 11.9983C21.2311 14.4629 20.2711 16.7789 18.5265 18.5235C17.6495 19.4005 16.6332 20.0752 15.5357 20.5266C14.428 20.9882 13.2372 21.2291 12.0003 21.2291C9.53568 21.2291 7.21876 20.2691 5.47322 18.5235C3.72953 16.7789 2.76953 14.4629 2.76953 11.9983ZM11.3726 15.6435C11.7603 15.6435 12.1286 15.4968 12.4157 15.2097L16.9111 10.7143C17.3449 10.2897 17.3449 9.58816 16.9111 9.15524C16.4763 8.72047 15.7757 8.72047 15.3418 9.15524L11.3726 13.1235L9.23106 10.982C8.79722 10.5482 8.09476 10.5482 7.66091 10.982C7.22799 11.4168 7.22799 12.1183 7.66091 12.5512L10.3194 15.2097C10.6064 15.4968 10.9748 15.6435 11.3726 15.6435Z" fill="#81CB5F"/>
</g>
</svg>
