<svg width="16" height="16" viewBox="0 0 16 16" fill="none" xmlns="http://www.w3.org/2000/svg">
<path d="M8 12C8.3866 12 8.7 11.6866 8.7 11.3C8.7 10.9134 8.3866 10.6 8 10.6C7.6134 10.6 7.3 10.9134 7.3 11.3C7.3 11.6866 7.6134 12 8 12Z" fill="#FFBB29"/>
<path fill-rule="evenodd" clip-rule="evenodd" d="M8 16C12.4183 16 16 12.4183 16 8C16 3.58172 12.4183 0 8 0C3.58172 0 0 3.58172 0 8C0 12.4183 3.58172 16 8 16ZM2.7999 4.65002C2.44092 4.65002 2.1499 4.94104 2.1499 5.30002C2.1499 5.65901 2.44092 5.95002 2.7999 5.95002H3.76088V8.08866C3.76088 9.7493 4.70698 11.1912 6.08967 11.894C6.34266 12.7085 7.10225 13.3 8 13.3C8.89779 13.3 9.65742 12.7085 9.91036 11.8939C11.2929 11.191 12.2389 9.74921 12.2389 8.08866V5.95002H13.1999C13.5589 5.95002 13.8499 5.65901 13.8499 5.30002C13.8499 4.94104 13.5589 4.65002 13.1999 4.65002H11.5889C11.4165 4.65002 11.2512 4.71851 11.1293 4.84041C11.0074 4.9623 10.9389 5.12763 10.9389 5.30002V8.08866C10.9389 9.0419 10.4927 9.88785 9.80085 10.429C9.47706 9.7608 8.79234 9.30005 8 9.30005C7.20762 9.30005 6.52287 9.76085 6.19909 10.4291C5.50714 9.88797 5.06088 9.04196 5.06088 8.08866L5.06088 5.30002C5.06088 5.12763 4.9924 4.9623 4.8705 4.8404C4.7486 4.71851 4.58327 4.65002 4.41088 4.65002H2.7999Z" fill="#FFBB29"/>
</svg>
