<svg width="16" height="16" viewBox="0 0 16 16" fill="none" xmlns="http://www.w3.org/2000/svg">
<path fill-rule="evenodd" clip-rule="evenodd" d="M0.27002 2.99997C0.27002 3.35896 0.561034 3.64998 0.92002 3.64998H2.46315L2.46315 6.71006C2.46315 8.97915 3.82832 10.9294 5.78214 11.7842C6.01588 12.5199 6.60559 13.0969 7.34893 13.313V14.5C7.34893 14.8589 7.63994 15.15 7.99893 15.15C8.35791 15.15 8.64893 14.8589 8.64893 14.5V13.3132C9.39271 13.0973 9.98281 12.52 10.2166 11.784C12.1701 10.9291 13.5351 8.97896 13.5351 6.71006V3.64998H15.0782C15.4372 3.64998 15.7282 3.35896 15.7282 2.99998C15.7282 2.64099 15.4372 2.34998 15.0782 2.34998H12.8851C12.5261 2.34998 12.2351 2.64099 12.2351 2.99998V6.71006C12.2351 8.24277 11.421 9.58536 10.2017 10.3291C9.88965 9.41248 9.02149 8.75314 7.99933 8.75314C6.97709 8.75314 6.10887 9.41258 5.79686 10.3293C4.57735 9.58561 3.76315 8.24292 3.76315 6.71006L3.76315 2.99998C3.76315 2.82758 3.69467 2.66225 3.57277 2.54036C3.45087 2.41846 3.28554 2.34998 3.11315 2.34998H0.92002C0.561034 2.34998 0.27002 2.64099 0.27002 2.99997ZM9.02532 11.0791C9.02532 11.6458 8.56597 12.1051 7.99933 12.1051C7.43269 12.1051 6.97334 11.6458 6.97334 11.0791C6.97334 10.5125 7.43269 10.0531 7.99933 10.0531C8.56597 10.0531 9.02532 10.5125 9.02532 11.0791Z" fill="#333333"/>
</svg>
