<svg width="16" height="16" viewBox="0 0 16 16" fill="none" xmlns="http://www.w3.org/2000/svg">
<path d="M3.39961 1.65002C3.04062 1.65002 2.74961 1.94104 2.74961 2.30002V5.02897L1.69348 7.76598C1.63538 7.91656 1.63538 8.08338 1.69348 8.23397L2.74961 10.971V13.7C2.74961 14.059 3.04062 14.35 3.39961 14.35H5.8999C6.25889 14.35 6.5499 14.059 6.5499 13.7C6.5499 13.341 6.25889 13.05 5.8999 13.05H4.04961V10.85C4.04961 10.77 4.03484 10.6906 4.00603 10.616L2.99661 7.99998L4.00603 5.38402C4.03483 5.30937 4.04961 5.23004 4.04961 5.15002V2.95002H5.8999C6.25889 2.95002 6.5499 2.65901 6.5499 2.30002C6.5499 1.94104 6.25889 1.65002 5.8999 1.65002H3.39961Z" fill="#333333"/>
<path d="M12.5999 1.65002C12.9589 1.65002 13.2499 1.94104 13.2499 2.30002V5.02897L14.306 7.76598C14.3641 7.91656 14.3641 8.08338 14.306 8.23397L13.2499 10.971V13.7C13.2499 14.059 12.9589 14.35 12.5999 14.35H10.0996C9.74062 14.35 9.44961 14.059 9.44961 13.7C9.44961 13.341 9.74062 13.05 10.0996 13.05H11.9499V10.85C11.9499 10.77 11.9647 10.6906 11.9935 10.616L13.0029 7.99998L11.9935 5.38402C11.9647 5.30937 11.9499 5.23004 11.9499 5.15002V2.95002H10.0996C9.74062 2.95002 9.44961 2.65901 9.44961 2.30002C9.44961 1.94104 9.74062 1.65002 10.0996 1.65002H12.5999Z" fill="#333333"/>
</svg>
