<svg width="24" height="24" viewBox="0 0 24 24" fill="none" xmlns="http://www.w3.org/2000/svg">
<path opacity="0.01" fill-rule="evenodd" clip-rule="evenodd" d="M0 24H24V0H0V24Z" fill="#F2F2F2"/>
<mask id="mask0" mask-type="alpha" maskUnits="userSpaceOnUse" x="0" y="0" width="24" height="24">
<path fill-rule="evenodd" clip-rule="evenodd" d="M0 24H24V0H0V24Z" fill="white"/>
</mask>
<g mask="url(#mask0)">
<path d="M21.2308 11.9999C21.2308 14.4922 20.3077 16.7999 18.5538 18.5538C17.7231 19.3846 16.7077 20.123 15.6 20.5846C14.4 20.9538 13.2 21.2307 12 21.2307C9.50769 21.2307 7.2 20.3076 5.44615 18.5538C3.6923 16.7999 2.76923 14.4922 2.76923 11.9999C2.76923 9.50763 3.6923 7.19994 5.44615 5.44609C9.04615 1.84609 14.9538 1.84609 18.5538 5.44609C20.3077 7.19994 21.2308 9.50763 21.2308 11.9999Z" fill="#296DFF"/>
<path d="M15.0964 12.2656L12.0866 8.90162H12.5292C13.1489 8.90162 13.5915 8.45899 13.68 7.92784C13.68 7.30817 13.2374 6.86555 12.7063 6.77703L9.87347 6.59998C9.07675 6.59998 8.45708 7.13112 8.36855 7.92784L8.28003 10.8492C8.28003 11.4688 8.72265 11.9115 9.2538 12H9.34232C9.87347 12 10.3161 11.5574 10.4046 11.0262V10.318L13.503 13.7705C13.5915 13.9475 13.68 14.1246 13.68 14.3016C13.68 14.4787 13.5915 14.6557 13.4145 14.7442L12.5292 15.541C12.0866 15.8951 12.0866 16.6033 12.4407 17.0459C12.6177 17.3115 12.9718 17.4 13.2374 17.4C13.503 17.4 13.7686 17.3115 13.9456 17.1344L14.8308 16.3377C15.362 15.8065 15.7161 15.1869 15.8046 14.3901C15.8046 13.5934 15.539 12.8852 15.0964 12.2656Z" fill="white"/>
</g>
</svg>
