<svg width="16" height="16" viewBox="0 0 16 16" fill="none" xmlns="http://www.w3.org/2000/svg">
<path fill-rule="evenodd" clip-rule="evenodd" d="M0.350098 3.09995C0.350098 2.74097 0.641113 2.44995 1.0001 2.44995H3.16873C3.34112 2.44995 3.50645 2.51843 3.62835 2.64033C3.75024 2.76223 3.81873 2.92756 3.81873 3.09995L3.81873 7.46292C3.81873 8.83556 4.38145 10.0455 5.25886 10.8653C5.60566 9.67867 6.70187 8.81189 8.00053 8.81189C9.29896 8.81189 10.395 9.67836 10.742 10.8646C11.619 10.0449 12.1815 8.83521 12.1815 7.46292V3.09995C12.1815 2.92756 12.25 2.76223 12.3719 2.64033C12.4937 2.51843 12.6591 2.44995 12.8315 2.44995H15.0001C15.3591 2.44995 15.6501 2.74097 15.6501 3.09995C15.6501 3.45894 15.3591 3.74995 15.0001 3.74995L13.4815 3.74995V7.46292C13.4815 9.59576 12.3859 11.4899 10.7336 12.4993C10.3776 13.6711 9.28865 14.5239 8.00053 14.5239C6.71265 14.5239 5.62386 13.6714 5.26764 12.5C3.61473 11.4907 2.51872 9.59621 2.51872 7.46292L2.51873 3.74995H1.0001C0.641113 3.74995 0.350098 3.45894 0.350098 3.09995ZM9.55653 11.6679C9.55653 12.5272 8.85989 13.2239 8.00053 13.2239C7.14118 13.2239 6.44453 12.5272 6.44453 11.6679C6.44453 10.8085 7.14118 10.1119 8.00053 10.1119C8.85989 10.1119 9.55653 10.8085 9.55653 11.6679Z" fill="#333333"/>
</svg>
