<svg width="16" height="16" viewBox="0 0 16 16" fill="none" xmlns="http://www.w3.org/2000/svg">
<path fill-rule="evenodd" clip-rule="evenodd" d="M0.950195 3.99998C0.950195 3.64099 1.24121 3.34998 1.6002 3.34998H3.58294C3.75533 3.34998 3.92066 3.41846 4.04256 3.54036C4.16446 3.66225 4.23294 3.82759 4.23294 3.99998L4.23294 7.98897C4.23294 9.2184 4.73231 10.3013 5.51152 11.0397C5.84746 9.98569 6.83451 9.22229 7.99987 9.22229C9.1654 9.22229 10.1526 9.98592 10.4884 11.0402C11.2679 10.3018 11.7675 9.21866 11.7675 7.98898V3.99998C11.7675 3.82759 11.8359 3.66226 11.9578 3.54036C12.0797 3.41846 12.2451 3.34998 12.4174 3.34998H14.4002C14.7592 3.34998 15.0502 3.64099 15.0502 3.99998C15.0502 4.35896 14.7592 4.64998 14.4002 4.64998L13.0674 4.64998V7.98898C13.0674 9.98135 12.0312 11.7507 10.4725 12.6751C10.1223 13.7043 9.14754 14.4447 7.99987 14.4447C6.85202 14.4447 5.87716 13.7041 5.5271 12.6746C3.96878 11.7501 2.93294 9.981 2.93294 7.98897L2.93294 4.64998H1.6002C1.24121 4.64998 0.950195 4.35896 0.950195 3.99998ZM9.31107 11.8335C9.31107 12.5576 8.72403 13.1447 7.99987 13.1447C7.27572 13.1447 6.68867 12.5576 6.68867 11.8335C6.68867 11.1093 7.27572 10.5223 7.99987 10.5223C8.72403 10.5223 9.31107 11.1093 9.31107 11.8335Z" fill="black"/>
</svg>
