<svg width="16" height="16" viewBox="0 0 16 16" fill="none" xmlns="http://www.w3.org/2000/svg">
<path fill-rule="evenodd" clip-rule="evenodd" d="M3.82959 1.80002C3.82959 1.44104 4.1206 1.15002 4.47959 1.15002H14.0001C14.3591 1.15002 14.6501 1.44104 14.6501 1.80002V12.0005C14.6501 12.3595 14.3591 12.6505 14.0001 12.6505H11.7475V14.2054C11.7475 14.5644 11.4565 14.8554 11.0975 14.8554H2.0001C1.64111 14.8554 1.3501 14.5644 1.3501 14.2054V4.70499C1.3501 4.34601 1.64111 4.05499 2.0001 4.05499H3.82959V1.80002ZM5.12959 4.05499H11.0975C11.4565 4.05499 11.7475 4.34601 11.7475 4.70499V11.3505H13.3501V2.45002H5.12959V4.05499ZM2.6501 13.5554V5.35499H10.4475V13.5554H2.6501Z" fill="black"/>
</svg>
