<svg width="16" height="16" viewBox="0 0 16 16" fill="none" xmlns="http://www.w3.org/2000/svg">
<path fill-rule="evenodd" clip-rule="evenodd" d="M13.3969 9.35263H6.99689V2.95263H13.3969V9.35263ZM6.75072 1.96802H13.643C14.0504 1.96802 14.3815 2.29909 14.3815 2.70648V9.59879C14.3815 10.0062 14.0504 10.3372 13.643 10.3372H6.75072C6.34334 10.3372 6.01226 10.0062 6.01226 9.59879V2.70648C6.01226 2.29909 6.34334 1.96802 6.75072 1.96802ZM9.70456 11.4677C9.70456 11.1957 9.92487 10.9753 10.1969 10.9753C10.4689 10.9753 10.6892 11.1957 10.6892 11.4677V13.291C10.6892 13.6984 10.3581 14.0295 9.95072 14.0295H3.05841C2.65102 14.0295 2.31995 13.6984 2.31995 13.291V6.39873C2.31995 5.99134 2.65102 5.66027 3.05841 5.66027H4.88056C5.15256 5.66027 5.37287 5.88119 5.37287 6.15257C5.37287 6.42396 5.15256 6.64488 4.88056 6.64488H3.30456V13.0449H9.70456V11.4677Z" fill="#666666"/>
</svg>
