<svg width="16" height="16" viewBox="0 0 16 16" fill="none" xmlns="http://www.w3.org/2000/svg">
<path fill-rule="evenodd" clip-rule="evenodd" d="M7.99707 7.82636L9.47264 9.30193C8.90487 9.84028 8.55078 10.6018 8.55078 11.4459C8.55078 13.0774 9.87338 14.4 11.5049 14.4C13.1364 14.4 14.459 13.0774 14.459 11.4459C14.459 9.81442 13.1364 8.49182 11.5049 8.49182C11.2011 8.49182 10.9079 8.53769 10.6321 8.62288L8.91631 6.90712L13.0638 2.75964C13.3176 2.5058 13.3176 2.09425 13.0638 1.8404C12.8099 1.58656 12.3984 1.58656 12.1445 1.84041L7.99707 5.98788L3.84959 1.84041C3.59575 1.58656 3.18419 1.58656 2.93035 1.8404C2.67651 2.09425 2.67651 2.5058 2.93035 2.75964L7.07783 6.90712L5.36322 8.62173C5.08845 8.53728 4.79661 8.49182 4.49415 8.49182C2.86264 8.49182 1.54004 9.81442 1.54004 11.4459C1.54004 13.0774 2.86264 14.4 4.49415 14.4C6.12565 14.4 7.44825 13.0774 7.44825 11.4459C7.44825 10.6005 7.09311 9.83803 6.52388 9.29955L7.99707 7.82636ZM6.14825 11.4459C6.14825 12.3595 5.40768 13.1 4.49415 13.1C3.58061 13.1 2.84004 12.3595 2.84004 11.4459C2.84004 10.5324 3.58061 9.79182 4.49415 9.79182C5.40768 9.79182 6.14825 10.5324 6.14825 11.4459ZM13.159 11.4459C13.159 12.3595 12.4184 13.1 11.5049 13.1C10.5913 13.1 9.85078 12.3595 9.85078 11.4459C9.85078 10.5324 10.5913 9.79182 11.5049 9.79182C12.4184 9.79182 13.159 10.5324 13.159 11.4459Z" fill="#333333"/>
</svg>
