<svg width="16" height="16" viewBox="0 0 16 16" fill="none" xmlns="http://www.w3.org/2000/svg">
<path fill-rule="evenodd" clip-rule="evenodd" d="M12.8709 6.21861C13.1596 6.21861 13.3934 6.45246 13.3934 6.74108C13.3934 7.02969 13.1596 7.26354 12.8709 7.26354H3.39032C3.07278 7.26354 2.78848 7.074 2.66602 6.77984C2.62602 6.68261 2.60632 6.58046 2.60632 6.47892C2.60632 6.27523 2.68632 6.07584 2.83648 5.92508L5.0414 3.72015C5.24571 3.51646 5.57617 3.51646 5.78048 3.72015C5.98417 3.92446 5.98417 4.25554 5.78048 4.45984L4.02171 6.21861H12.8709ZM13.1639 10.7483L10.9589 12.9532C10.7546 13.1569 10.4242 13.1569 10.2205 12.9532C10.0162 12.7489 10.0162 12.4178 10.2205 12.2135L11.9786 10.4547H3.12817C2.84078 10.4547 2.60632 10.2209 2.60632 9.93227C2.60632 9.64366 2.84078 9.40981 3.12817 9.40981H12.61C12.9276 9.40981 13.2125 9.59935 13.3343 9.89351C13.4549 10.1877 13.3891 10.523 13.1639 10.7483Z" fill="#333333"/>
</svg>
