<svg width="16" height="16" viewBox="0 0 16 16" fill="none" xmlns="http://www.w3.org/2000/svg">
<path fill-rule="evenodd" clip-rule="evenodd" d="M1.75 2.4C1.75 2.04101 2.04101 1.75 2.4 1.75H5.9C6.25899 1.75 6.55 2.04101 6.55 2.4C6.55 2.75899 6.25899 3.05 5.9 3.05H3.05V5.9C3.05 6.25899 2.75899 6.55 2.4 6.55C2.04101 6.55 1.75 6.25899 1.75 5.9V2.4ZM9.45 2.4C9.45 2.04101 9.74101 1.75 10.1 1.75H13.6C13.959 1.75 14.25 2.04101 14.25 2.4V5.9C14.25 6.25899 13.959 6.55 13.6 6.55C13.241 6.55 12.95 6.25899 12.95 5.9V3.05H10.1C9.74101 3.05 9.45 2.75899 9.45 2.4ZM2.4 9.45C2.75899 9.45 3.05 9.74101 3.05 10.1V12.95H5.9C6.25899 12.95 6.55 13.241 6.55 13.6C6.55 13.959 6.25899 14.25 5.9 14.25H2.4C2.04101 14.25 1.75 13.959 1.75 13.6V10.1C1.75 9.74101 2.04101 9.45 2.4 9.45ZM13.6 9.45C13.959 9.45 14.25 9.74101 14.25 10.1V13.6C14.25 13.959 13.959 14.25 13.6 14.25H10.1C9.74101 14.25 9.45 13.959 9.45 13.6C9.45 13.241 9.74101 12.95 10.1 12.95H12.95V10.1C12.95 9.74101 13.241 9.45 13.6 9.45Z" fill="#333333"/>
</svg>
