<svg width="16" height="16" viewBox="0 0 16 16" fill="none" xmlns="http://www.w3.org/2000/svg">
<path fill-rule="evenodd" clip-rule="evenodd" d="M1.6499 2.30002C1.6499 1.94104 1.94092 1.65002 2.2999 1.65002H5.8624C6.22139 1.65002 6.5124 1.94104 6.5124 2.30002C6.5124 2.65901 6.22139 2.95002 5.8624 2.95002H2.9499V5.86252C2.9499 6.22151 2.65889 6.51252 2.2999 6.51252C1.94092 6.51252 1.6499 6.22151 1.6499 5.86252V2.30002ZM9.4874 2.30002C9.4874 1.94104 9.77842 1.65002 10.1374 1.65002H13.6999C14.0589 1.65002 14.3499 1.94104 14.3499 2.30002V5.86252C14.3499 6.22151 14.0589 6.51252 13.6999 6.51252C13.3409 6.51252 13.0499 6.22151 13.0499 5.86252V2.95002H10.1374C9.77842 2.95002 9.4874 2.65901 9.4874 2.30002ZM2.2999 9.48752C2.65889 9.48752 2.9499 9.77854 2.9499 10.1375V13.05H5.8624C6.22139 13.05 6.5124 13.341 6.5124 13.7C6.5124 14.059 6.22139 14.35 5.8624 14.35H2.2999C1.94092 14.35 1.6499 14.059 1.6499 13.7V10.1375C1.6499 9.77854 1.94092 9.48752 2.2999 9.48752ZM13.6999 9.48752C14.0589 9.48752 14.3499 9.77854 14.3499 10.1375V13.7C14.3499 14.059 14.0589 14.35 13.6999 14.35H10.1374C9.77842 14.35 9.4874 14.059 9.4874 13.7C9.4874 13.341 9.77842 13.05 10.1374 13.05H13.0499V10.1375C13.0499 9.77854 13.3409 9.48752 13.6999 9.48752Z" fill="black"/>
</svg>
