<svg width="16" height="16" viewBox="0 0 16 16" fill="none" xmlns="http://www.w3.org/2000/svg">
<path fill-rule="evenodd" clip-rule="evenodd" d="M8 16C12.4183 16 16 12.4183 16 8C16 3.58172 12.4183 0 8 0C3.58172 0 0 3.58172 0 8C0 12.4183 3.58172 16 8 16ZM8.6688 3.3404C8.92264 3.08656 9.3342 3.08656 9.58804 3.3404L11.7577 5.51006C12.0115 5.7639 12.0115 6.17546 11.7577 6.4293L6.99923 11.1878H9.5101C9.86908 11.1878 10.1601 11.4788 10.1601 11.8378C10.1601 12.1968 9.86908 12.4878 9.5101 12.4878H5.4332C5.26081 12.4878 5.09548 12.4193 4.97358 12.2974C4.85169 12.1755 4.7832 12.0102 4.7832 11.8378V7.76003C4.7832 7.40105 5.07422 7.11003 5.4332 7.11003C5.79219 7.11003 6.0832 7.40105 6.0832 7.76003V10.2653L10.3788 5.96968L8.6688 4.25964C8.41496 4.0058 8.41496 3.59425 8.6688 3.3404Z" fill="#296DFF"/>
</svg>
