<svg width="16" height="16" viewBox="0 0 16 16" fill="none" xmlns="http://www.w3.org/2000/svg">
<path d="M10.3345 2.14045C10.0807 1.88661 9.66914 1.88661 9.4153 2.14045C9.16146 2.39429 9.16146 2.80585 9.4153 3.05969L11.5807 5.22507L5.27893 11.5267L5.27893 7.50686C5.27893 7.14787 4.98791 6.85686 4.62893 6.85686C4.26994 6.85686 3.97893 7.14787 3.97893 7.50686L3.97893 13.0271C3.95765 13.2168 4.01975 13.4141 4.16523 13.5596C4.28959 13.684 4.4518 13.7474 4.61478 13.7499C4.61949 13.75 4.62421 13.7501 4.62893 13.7501H10.221C10.58 13.7501 10.871 13.4591 10.871 13.1001C10.871 12.7411 10.58 12.4501 10.221 12.4501H6.19403L12.9595 5.68469C13.0814 5.5628 13.1499 5.39746 13.1499 5.22507C13.1499 5.05268 13.0814 4.88735 12.9595 4.76545L10.3345 2.14045Z" fill="black"/>
</svg>
