<svg width="16" height="16" viewBox="0 0 16 16" fill="none" xmlns="http://www.w3.org/2000/svg">
<path d="M1.8501 3.9C1.8501 3.54101 2.14111 3.25 2.5001 3.25H13.5001C13.8591 3.25 14.1501 3.54102 14.1501 3.9C14.1501 4.25899 13.8591 4.55 13.5001 4.55L2.5001 4.55C2.14111 4.55 1.8501 4.25898 1.8501 3.9Z" fill="#333333"/>
<path d="M1.8501 7.99998C1.8501 7.64099 2.14111 7.34998 2.5001 7.34998L13.5001 7.34998C13.8591 7.34998 14.1501 7.64099 14.1501 7.99998C14.1501 8.35896 13.8591 8.64998 13.5001 8.64998L2.5001 8.64998C2.14111 8.64998 1.8501 8.35896 1.8501 7.99998Z" fill="#333333"/>
<path d="M2.5001 11.45C2.14111 11.45 1.8501 11.741 1.8501 12.1C1.8501 12.4589 2.14111 12.75 2.5001 12.75L13.5001 12.75C13.8591 12.75 14.1501 12.4589 14.1501 12.1C14.1501 11.741 13.8591 11.45 13.5001 11.45L2.5001 11.45Z" fill="#333333"/>
</svg>
