<svg width="18" height="18" viewBox="0 0 18 18" fill="none" xmlns="http://www.w3.org/2000/svg">
<path opacity="0.01" fill-rule="evenodd" clip-rule="evenodd" d="M0 18H18V0H0V18Z" fill="#666666"/>
<mask id="mask0" mask-type="alpha" maskUnits="userSpaceOnUse" x="0" y="0" width="18" height="18">
<path fill-rule="evenodd" clip-rule="evenodd" d="M0 18H18V0H0V18Z" fill="white"/>
</mask>
<g mask="url(#mask0)">
<path fill-rule="evenodd" clip-rule="evenodd" d="M14.5387 5.39985H3.46181C3.15581 5.39985 2.90796 5.15201 2.90796 4.84601C2.90796 4.5407 3.15581 4.29216 3.46181 4.29216H14.5387C14.8447 4.29216 15.0926 4.5407 15.0926 4.84601C15.0926 5.15201 14.8447 5.39985 14.5387 5.39985ZM14.5387 8.44629H3.46181C3.15581 8.44629 2.90796 8.69413 2.90796 9.00013C2.90796 9.30544 3.15581 9.55398 3.46181 9.55398H14.5387C14.8447 9.55398 15.0926 9.30544 15.0926 9.00013C15.0926 8.69413 14.8447 8.44629 14.5387 8.44629ZM14.5387 12.6001H3.46181C3.15581 12.6001 2.90796 12.848 2.90796 13.154C2.90796 13.4593 3.15581 13.7078 3.46181 13.7078H14.5387C14.8447 13.7078 15.0926 13.4593 15.0926 13.154C15.0926 12.848 14.8447 12.6001 14.5387 12.6001Z" fill="#666666"/>
</g>
</svg>
