<svg width="16" height="16" viewBox="0 0 16 16" fill="none" xmlns="http://www.w3.org/2000/svg">
<path fill-rule="evenodd" clip-rule="evenodd" d="M7.99567 1.51501C8.35466 1.51501 8.64567 1.80603 8.64567 2.16501V7.34561L13.8343 7.34561C14.1933 7.34561 14.4843 7.63663 14.4843 7.99561C14.4843 8.3546 14.1933 8.64561 13.8343 8.64561L8.64567 8.64561V13.8351C8.64567 14.1941 8.35466 14.4851 7.99567 14.4851C7.63669 14.4851 7.34567 14.1941 7.34567 13.8351L7.34567 8.64561L2.16465 8.64561C1.80566 8.64561 1.51465 8.3546 1.51465 7.99561C1.51465 7.63663 1.80566 7.34561 2.16465 7.34561L7.34567 7.34561L7.34567 2.16501C7.34567 1.80603 7.63669 1.51501 7.99567 1.51501Z" fill="#333333"/>
</svg>
