<svg width="16" height="16" viewBox="0 0 16 16" fill="none" xmlns="http://www.w3.org/2000/svg">
<path fill-rule="evenodd" clip-rule="evenodd" d="M7.9978 4C8.34381 4 8.62431 4.2805 8.62431 4.62651V7.37093L11.3735 7.37093C11.7195 7.37093 12 7.65142 12 7.99743C12 8.34344 11.7195 8.62394 11.3735 8.62394L8.62431 8.62394V11.3735C8.62431 11.7195 8.34381 12 7.9978 12C7.65179 12 7.3713 11.7195 7.3713 11.3735V8.62394L4.62651 8.62394C4.2805 8.62394 4 8.34344 4 7.99743C4 7.65142 4.2805 7.37093 4.62651 7.37093L7.3713 7.37093L7.3713 4.62651C7.3713 4.2805 7.65179 4 7.9978 4Z" fill="#333333"/>
</svg>
