<svg width="16" height="16" viewBox="0 0 16 16" fill="none" xmlns="http://www.w3.org/2000/svg">
<path d="M15.2294 4.12742C15.2438 4.31036 15.181 4.49821 15.0411 4.63813L13.0126 6.66664C12.7587 6.92048 12.3472 6.92049 12.0933 6.66664C11.8395 6.4128 11.8395 6.00125 12.0933 5.74741L13.0158 4.82489H6.3124C4.24824 4.82489 2.5749 6.49822 2.5749 8.56239C2.5749 10.6266 4.24824 12.2999 6.3124 12.2999H12.3563C12.7153 12.2999 13.0063 12.5909 13.0063 12.9499C13.0063 13.3089 12.7153 13.5999 12.3563 13.5999H6.3124C3.53027 13.5999 1.2749 11.3445 1.2749 8.56239C1.2749 5.78025 3.53027 3.52489 6.3124 3.52489H13.0086L12.0933 2.60962C11.8395 2.35578 11.8395 1.94422 12.0933 1.69038C12.3472 1.43654 12.7587 1.43654 13.0126 1.69038L14.9999 3.67771C15.13 3.7874 15.2164 3.94724 15.2294 4.12742Z" fill="black"/>
</svg>
