<svg width="16" height="16" viewBox="0 0 16 16" fill="none" xmlns="http://www.w3.org/2000/svg">
<path fill-rule="evenodd" clip-rule="evenodd" d="M9.56999 2.98462H6.43029C6.15891 2.98462 5.93799 2.76431 5.93799 2.49231C5.93799 2.22092 6.15891 2 6.43029 2H9.56999C9.84137 2 10.0617 2.22092 10.0617 2.49231C10.0617 2.76431 9.84137 2.98462 9.56999 2.98462ZM13.1803 3.68271H2.8197C2.54832 3.68271 2.32739 3.90363 2.32739 4.17501C2.32739 4.44701 2.54832 4.66732 2.8197 4.66732H3.27016V13.1547C3.27016 13.5646 3.60124 13.8981 4.00801 13.8981H11.992C12.3988 13.8981 12.7305 13.5646 12.7305 13.1547V4.66732H13.1803C13.4517 4.66732 13.6726 4.44701 13.6726 4.17501C13.6726 3.90363 13.4517 3.68271 13.1803 3.68271ZM4.25416 12.9135H11.7459V4.66732H4.25416V12.9135ZM7.10832 10.3914C7.10832 10.6634 6.8874 10.8837 6.61601 10.8837C6.34463 10.8837 6.12371 10.6634 6.12371 10.3914V7.18954C6.12371 6.91815 6.34463 6.69723 6.61601 6.69723C6.8874 6.69723 7.10832 6.91815 7.10832 7.18954V10.3914ZM9.38345 10.8837C9.65483 10.8837 9.87576 10.6634 9.87576 10.3914V7.18954C9.87576 6.91815 9.65483 6.69723 9.38345 6.69723C9.11206 6.69723 8.89114 6.91815 8.89114 7.18954V10.3914C8.89114 10.6634 9.11206 10.8837 9.38345 10.8837Z" fill="#666666"/>
</svg>
