<svg width="16" height="16" viewBox="0 0 16 16" fill="none" xmlns="http://www.w3.org/2000/svg">
<path fill-rule="evenodd" clip-rule="evenodd" d="M5.4874 0.849976C5.12842 0.849976 4.8374 1.14099 4.8374 1.49998V3.3219H1.9498C1.59082 3.3219 1.2998 3.61291 1.2998 3.9719C1.2998 4.33088 1.59082 4.6219 1.9498 4.6219H2.59253L3.39932 13.956C3.42836 14.292 3.70961 14.55 4.0469 14.55H11.9528C12.2901 14.55 12.5713 14.292 12.6004 13.956L13.4072 4.6219H14.0498C14.4088 4.6219 14.6998 4.33088 14.6998 3.9719C14.6998 3.61291 14.4088 3.3219 14.0498 3.3219H11.1624V1.49998C11.1624 1.14099 10.8714 0.849976 10.5124 0.849976H5.4874ZM9.8624 3.3219V2.14998H6.1374V3.3219H9.8624ZM3.89738 4.6219H12.1023L11.3565 13.25H4.64314L3.89738 4.6219Z" fill="black"/>
</svg>
