<svg width="16" height="16" viewBox="0 0 16 16" fill="none" xmlns="http://www.w3.org/2000/svg">
<path d="M1.27642 4.12736C1.26206 4.31032 1.32485 4.49819 1.46479 4.63813L3.49331 6.66664C3.74715 6.92048 4.1587 6.92049 4.41255 6.66664C4.66639 6.4128 4.66639 6.00125 4.41255 5.74741L3.49003 4.82489H10.1935C12.2576 4.82489 13.931 6.49822 13.931 8.56239C13.931 10.6266 12.2576 12.2999 10.1935 12.2999H4.14954C3.79056 12.2999 3.49954 12.5909 3.49954 12.9499C3.49954 13.3089 3.79056 13.5999 4.14954 13.5999H10.1935C12.9756 13.5999 15.231 11.3445 15.231 8.56239C15.231 5.78025 12.9756 3.52489 10.1935 3.52489H3.49728L4.41255 2.60962C4.66639 2.35578 4.66639 1.94422 4.41255 1.69038C4.1587 1.43654 3.74715 1.43654 3.49331 1.69038L1.50598 3.67771C1.37588 3.78739 1.28944 3.9472 1.27642 4.12736Z" fill="#333333"/>
</svg>
