<svg width="16" height="13" viewBox="0 0 16 13" fill="none" xmlns="http://www.w3.org/2000/svg">
<path fill-rule="evenodd" clip-rule="evenodd" d="M0.349609 1.09995C0.349609 0.740966 0.640624 0.449951 0.999609 0.449951H3.16824C3.34063 0.449951 3.50596 0.518433 3.62786 0.640332C3.74976 0.762231 3.81824 0.927561 3.81824 1.09995L3.81824 5.46292C3.81824 6.83556 4.38096 8.04554 5.25837 8.86526C5.60518 7.67867 6.70139 6.81189 8.00004 6.81189C9.29847 6.81189 10.3945 7.67836 10.7415 8.86462C11.6185 8.04492 12.181 6.83521 12.181 5.46292V1.09995C12.181 0.927561 12.2495 0.762231 12.3714 0.640332C12.4933 0.518434 12.6586 0.449951 12.831 0.449951H14.9996C15.3586 0.449951 15.6496 0.740967 15.6496 1.09995C15.6496 1.45894 15.3586 1.74995 14.9996 1.74995L13.481 1.74995V5.46292C13.481 7.59576 12.3855 9.48993 10.7331 10.4993C10.3771 11.6711 9.28817 12.5239 8.00004 12.5239C6.71216 12.5239 5.62337 11.6714 5.26716 10.5C3.61424 9.49074 2.51824 7.59621 2.51824 5.46292L2.51824 1.74995H0.999609C0.640624 1.74995 0.349609 1.45894 0.349609 1.09995ZM9.55604 9.66789C9.55604 10.5272 8.8594 11.2239 8.00004 11.2239C7.14069 11.2239 6.44404 10.5272 6.44404 9.66789C6.44404 8.80853 7.14069 8.11189 8.00004 8.11189C8.8594 8.11189 9.55604 8.80853 9.55604 9.66789Z" fill="#333333"/>
</svg>
