<svg width="16" height="16" viewBox="0 0 16 16" fill="none" xmlns="http://www.w3.org/2000/svg">
<path d="M8.01105 2C6.15481 2 4.65003 3.50478 4.65003 5.36102C4.65003 7.21726 6.15481 8.72204 8.01105 8.72204C9.86729 8.72204 11.3721 7.21726 11.3721 5.36102C11.3721 3.50478 9.86729 2 8.01105 2Z" fill="#333333"/>
<path d="M5.29346 9.9586C4.70209 9.80258 4.07452 9.65011 3.50395 9.87033C2.56557 10.2325 1.8999 11.1431 1.8999 12.2093V13.9128C1.8999 14.2523 2.17513 14.5275 2.51463 14.5275H13.4852C13.8247 14.5275 14.0999 14.2523 14.0999 13.9128V12.2093C14.0999 11.1387 13.4286 10.2248 12.484 9.86578C11.9201 9.65144 11.3014 9.79953 10.7179 9.95271C8.70031 10.3941 7.28124 10.3942 5.29346 9.9586Z" fill="#333333"/>
</svg>
