<svg width="16" height="16" viewBox="0 0 16 16" fill="none" xmlns="http://www.w3.org/2000/svg">
<path fill-rule="evenodd" clip-rule="evenodd" d="M3.04714 3.04021C3.30107 2.78645 3.71262 2.78658 3.96638 3.04051L8.00043 7.07718L12.0341 3.04083C12.2879 2.78691 12.6995 2.78678 12.9534 3.04053C13.2073 3.29429 13.2074 3.70585 12.9537 3.95977L8.91936 7.99672L12.9599 12.0399C13.2136 12.2938 13.2135 12.7053 12.9596 12.9591C12.7056 13.2128 12.2941 13.2127 12.0403 12.9588L8.00043 8.91625L3.95987 12.9594C3.70611 13.2134 3.29455 13.2135 3.04063 12.9597C2.7867 12.706 2.78657 12.2944 3.04033 12.0405L7.08149 7.99672L3.04684 3.95945C2.79309 3.70552 2.79322 3.29396 3.04714 3.04021Z" fill="black"/>
</svg>
