<svg width="16" height="16" viewBox="0 0 16 16" fill="none" xmlns="http://www.w3.org/2000/svg">
<path fill-rule="evenodd" clip-rule="evenodd" d="M8 16C12.4183 16 16 12.4183 16 8C16 3.58172 12.4183 0 8 0C3.58172 0 0 3.58172 0 8C0 12.4183 3.58172 16 8 16ZM5.70444 4.78035C5.4506 4.52651 5.03904 4.52651 4.7852 4.78035C4.53136 5.03419 4.53136 5.44574 4.7852 5.69958L7.0815 7.99589L4.7812 10.2962C4.52736 10.55 4.52736 10.9616 4.7812 11.2154C5.03504 11.4693 5.4466 11.4693 5.70044 11.2154L8.00074 8.91512L10.3006 11.215C10.5545 11.4689 10.966 11.4689 11.2199 11.215C11.4737 10.9612 11.4737 10.5496 11.2199 10.2958L8.91997 7.99589L11.2161 5.69979C11.4699 5.44595 11.4699 5.03439 11.2161 4.78055C10.9622 4.52671 10.5507 4.52671 10.2968 4.78055L8.00074 7.07665L5.70444 4.78035Z" fill="#E55A3A"/>
</svg>
