<svg width="16" height="16" viewBox="0 0 16 16" fill="none" xmlns="http://www.w3.org/2000/svg">
<path opacity="0.01" fill-rule="evenodd" clip-rule="evenodd" d="M0 16H16V0H0V16Z" fill="#CCCCCC"/>
<mask id="mask0" mask-type="alpha" maskUnits="userSpaceOnUse" x="0" y="0" width="16" height="16">
<path fill-rule="evenodd" clip-rule="evenodd" d="M0 16H16V0H0V16Z" fill="white"/>
</mask>
<g mask="url(#mask0)">
<path fill-rule="evenodd" clip-rule="evenodd" d="M7.04308 3.49097C6.96923 3.82267 6.64185 4.03128 6.30892 3.95805C6.05108 3.90328 5.29046 3.84051 4.90831 4.2079C4.64931 4.45643 4.65723 4.55368 4.68674 4.91647L4.68677 4.91682C4.71508 5.25959 4.75323 5.72913 4.49723 6.3279C4.23875 6.91916 3.87367 7.22128 3.60615 7.44268L3.60431 7.4442C3.31754 7.68051 3.23077 7.75251 3.23077 8.10513C3.23077 8.455 3.31679 8.52594 3.60055 8.75995L3.60123 8.76051L3.60382 8.76265C3.87251 8.98461 4.23898 9.28734 4.496 9.87928C4.75323 10.4805 4.71508 10.9501 4.68677 11.2928L4.68676 11.293C4.65723 11.6559 4.64927 11.7538 4.90831 12.003C5.29046 12.3691 6.05046 12.307 6.31139 12.251C6.64492 12.1814 6.97046 12.3913 7.04246 12.7224C7.11446 13.0534 6.90646 13.3796 6.576 13.4534C6.50954 13.4682 6.224 13.5261 5.84738 13.5261C5.31385 13.5261 4.59631 13.4097 4.05538 12.8897C3.37563 12.237 3.42449 11.6346 3.46017 11.1948L3.46031 11.1931C3.48369 10.9082 3.50154 10.6842 3.36554 10.3667C3.22762 10.0485 3.04819 9.90014 2.82176 9.71289L2.81908 9.71067L2.81871 9.71036C2.4729 9.42547 2 9.03588 2 8.10513C2 7.17282 2.47446 6.78082 2.82092 6.49528L2.82193 6.49445C3.04915 6.30654 3.22851 6.15819 3.36738 5.83928C3.50154 5.52544 3.48369 5.30082 3.46031 5.01651L3.46017 5.01476C3.42448 4.57492 3.37567 3.97318 4.05538 3.3199C4.97846 2.43374 6.416 2.72113 6.576 2.75682C6.90769 2.83005 7.11692 3.15928 7.04308 3.49097ZM13.1731 6.49299L13.1749 6.49442C13.5232 6.78058 14.0001 7.17258 14.0001 8.10488C14.0001 9.03572 13.5253 9.4255 13.1784 9.71031L13.1767 9.71165C12.9472 9.89873 12.7663 10.047 12.6266 10.3695C12.4918 10.6846 12.5097 10.9086 12.533 11.1935C12.5694 11.6335 12.6186 12.236 11.938 12.8901C11.397 13.4095 10.6795 13.5264 10.146 13.5264C9.76935 13.5264 9.48382 13.468 9.41797 13.4538C9.08566 13.3793 8.87643 13.0507 8.95028 12.719C9.02412 12.3873 9.35458 12.18 9.68443 12.2513C9.94289 12.3073 10.7023 12.3695 11.085 12.0027C11.3441 11.7541 11.3361 11.6563 11.3066 11.2933L11.3066 11.2932C11.2783 10.9498 11.2401 10.4809 11.4961 9.88211C11.7555 9.2846 12.1255 8.98122 12.3956 8.75974L12.3964 8.75904L12.3991 8.75684C12.6905 8.51803 12.7694 8.45335 12.7694 8.10488C12.7694 7.75462 12.6822 7.68293 12.3952 7.44682L12.394 7.44581C12.1244 7.22488 11.7558 6.9215 11.498 6.33196C11.2432 5.73627 11.2814 5.25688 11.3097 4.90796L11.3097 4.90766C11.3404 4.52453 11.3477 4.43344 11.082 4.20335C10.7047 3.87596 9.90843 3.92642 9.6592 3.9695C9.32382 4.02858 9.00628 3.80519 8.94597 3.47165C8.88689 3.13812 9.1072 2.81935 9.44074 2.75842C9.59828 2.73073 10.9983 2.50181 11.8881 3.2735C12.6247 3.91104 12.5737 4.54427 12.5361 5.00642C12.5127 5.29996 12.4943 5.53196 12.6278 5.84335C12.7647 6.15701 12.945 6.30536 13.1731 6.49299Z" fill="#999999"/>
</g>
</svg>
