<svg width="16" height="16" viewBox="0 0 16 16" fill="none" xmlns="http://www.w3.org/2000/svg">
<path d="M13.1789 9.36003C12.3817 7.97056 10.4196 7.40214 8.88664 7.65477L11.5846 2.91793C11.7072 2.6653 11.6459 2.34951 11.4007 2.22319C11.1554 2.09688 10.8488 2.16003 10.7262 2.41267L7.96689 7.33898L5.20761 2.41267C5.08497 2.22319 4.77839 2.09688 4.53312 2.28635C4.28785 2.41267 4.22653 2.72846 4.34917 2.98109L7.04713 7.71793C5.57551 7.40214 3.55204 8.03372 2.81624 9.42319C1.95779 11.0021 2.93887 12.96 4.41048 14.0337C4.53312 14.0969 4.65575 14.16 4.83971 14.16C4.90102 14.16 4.96234 14.16 4.96234 14.16C5.14629 14.0969 5.33024 13.9706 5.45288 13.7811L7.96689 9.36003L10.4809 13.7811C10.6035 13.9706 10.7875 14.0969 10.9714 14.16C11.0327 14.16 11.0941 14.16 11.0941 14.16C11.278 14.16 11.4007 14.0969 11.5233 14.0337C13.0562 12.8969 14.0373 10.939 13.1789 9.36003ZM4.71707 13.0232C3.73599 12.2021 3.0615 10.8758 3.61336 9.8653C4.04258 9.04424 5.20761 8.60214 6.25 8.60214C6.55659 8.60214 6.86317 8.6653 7.16976 8.72845L4.71707 13.0232ZM11.2167 13.0232L8.82533 8.79161C9.92904 8.41267 11.7686 8.85477 12.3817 9.92845C12.8723 10.8127 12.1978 12.139 11.2167 13.0232Z" fill="#666666"/>
</svg>
