<svg width="24" height="24" viewBox="0 0 24 24" fill="none" xmlns="http://www.w3.org/2000/svg">
<path opacity="0.01" fill-rule="evenodd" clip-rule="evenodd" d="M0 24H24V0H0V24Z" fill="#F2F2F2"/>
<mask id="mask0" mask-type="alpha" maskUnits="userSpaceOnUse" x="0" y="0" width="24" height="24">
<path fill-rule="evenodd" clip-rule="evenodd" d="M0 24H24V0H0V24Z" fill="white"/>
</mask>
<g mask="url(#mask0)">
<path d="M18.5539 5.44609C14.9539 1.84609 9.04621 1.84609 5.44621 5.44609C3.69236 7.19994 2.76929 9.50763 2.76929 11.9999C2.76929 14.4922 3.69236 16.7999 5.44621 18.5538C7.20006 20.3076 9.50775 21.2307 12.0001 21.2307C13.2001 21.2307 14.4001 20.9538 15.5077 20.4922C16.6154 20.0307 17.6308 19.3846 18.4616 18.4615C20.3077 16.7999 21.2308 14.4922 21.2308 11.9999C21.2308 9.50763 20.3077 7.19994 18.5539 5.44609ZM15.7847 13.1076H13.1077V15.7846C13.1077 16.4307 12.6462 16.8922 12.0001 16.8922C11.3539 16.8922 10.8924 16.4307 10.8924 15.7846V13.1076H8.21544C7.56929 13.1076 7.10775 12.6461 7.10775 11.9999C7.10775 11.3538 7.56929 10.8922 8.21544 10.8922H10.8924V8.21532C10.8924 7.56917 11.3539 7.10763 12.0001 7.10763C12.6462 7.10763 13.1077 7.56917 13.1077 8.21532V10.8922H15.7847C16.4308 10.8922 16.8924 11.3538 16.8924 11.9999C16.8924 12.6461 16.4308 13.1076 15.7847 13.1076Z" fill="currentColor"/>
</g>
</svg>
