<svg width="16" height="16" viewBox="0 0 16 16" fill="none" xmlns="http://www.w3.org/2000/svg">
<path d="M1 16H15V14H1V16ZM13 8H10.9062C10.4062 8 10 7.59375 10 7.09375V6.8125C10 5.9375 10.25 5.125 10.6562 4.375C10.9375 3.8125 11.0625 3.15625 10.9375 2.46875C10.7188 1.28125 9.75 0.28125 8.53125 0.0625C6.625 -0.28125 5 1.1875 5 3C5 3.46875 5.09375 3.875 5.25 4.25C5.6875 5.15625 6 6.09375 6 7.09375C6 7.59375 5.5625 8 5.0625 8H3C1.3125 8 0 9.34375 0 11V12C0 12.5625 0.4375 13 1 13H15C15.5312 13 16 12.5625 16 12V11C16 9.34375 14.6562 8 13 8Z" fill="#4A4E58" fill-opacity="0.2"/>
</svg>
