<svg width="20" height="20" viewBox="0 0 20 20" fill="none" xmlns="http://www.w3.org/2000/svg">
<path opacity="0.01" fill-rule="evenodd" clip-rule="evenodd" d="M0 20H20V0H0V20Z" fill="#F2F2F2"/>
<mask id="mask0" mask-type="alpha" maskUnits="userSpaceOnUse" x="0" y="0" width="20" height="20">
<path fill-rule="evenodd" clip-rule="evenodd" d="M0 20H20V0H0V20Z" fill="white"/>
</mask>
<g mask="url(#mask0)">
<path fill-rule="evenodd" clip-rule="evenodd" d="M11.23 9.99991L14.7451 6.48463C15.085 6.14477 15.085 5.59403 14.7451 5.2549C14.4053 4.91503 13.8553 4.91503 13.5155 5.2549L10.0004 8.77018L6.48455 5.2549C6.1447 4.91503 5.59472 4.91503 5.25488 5.2549C4.91504 5.59403 4.91504 6.14477 5.25488 6.48463L8.76997 9.99991L5.25488 13.5159C4.91504 13.8551 4.91504 14.4058 5.25488 14.7456C5.42444 14.9152 5.6469 15 5.87008 15C6.09253 15 6.31499 14.9152 6.48455 14.7456L10.0004 11.2296L13.5155 14.7456C13.685 14.9152 13.9075 15 14.1299 15C14.3531 15 14.5756 14.9152 14.7451 14.7456C15.085 14.4058 15.085 13.8551 14.7451 13.5159L11.23 9.99991Z" fill="white"/>
</g>
</svg>
