<svg width="24" height="24" viewBox="0 0 24 24" fill="none" xmlns="http://www.w3.org/2000/svg">
<path opacity="0.01" fill-rule="evenodd" clip-rule="evenodd" d="M0 24H24V0H0V24Z" fill="#F2F2F2"/>
<mask id="mask0" mask-type="alpha" maskUnits="userSpaceOnUse" x="0" y="0" width="24" height="24">
<path fill-rule="evenodd" clip-rule="evenodd" d="M0 24H24V0H0V24Z" fill="white"/>
</mask>
<g mask="url(#mask0)">
<path fill-rule="evenodd" clip-rule="evenodd" d="M5.47336 5.46929C9.07244 1.86929 14.9247 1.86929 18.5247 5.46929C20.2694 7.2139 21.2294 9.5299 21.2294 11.9945C21.2294 14.4693 20.2694 16.7862 18.5247 18.5216C17.6571 19.3884 16.6417 20.0714 15.534 20.533C14.4263 20.9945 13.2355 21.2345 11.9986 21.2345C9.53398 21.2345 7.21705 20.2653 5.47336 18.5216C3.72782 16.7862 2.76782 14.4693 2.76782 11.9945C2.76782 9.5299 3.72782 7.2139 5.47336 5.46929ZM15.6078 15.6037C16.0417 15.1708 16.0417 14.4693 15.6078 14.0437L13.5678 12.0037L15.6078 9.95452C16.0417 9.5299 16.0417 8.82928 15.6078 8.39544C15.174 7.96067 14.4734 7.96067 14.0386 8.39544L11.9986 10.4354L9.95859 8.39544C9.52474 7.96067 8.8232 7.96067 8.38936 8.39544C7.95551 8.82928 7.95551 9.5299 8.38936 9.95452L10.4386 12.0037L8.38936 14.0437C7.95551 14.4693 7.95551 15.1708 8.38936 15.6037C8.6109 15.8262 8.89705 15.9268 9.17397 15.9268C9.46013 15.9268 9.74628 15.8262 9.95859 15.6037L11.9986 13.5637L14.0386 15.6037C14.2601 15.8262 14.5371 15.9268 14.8232 15.9268C15.1094 15.9268 15.3863 15.8262 15.6078 15.6037Z" fill="#E55A3A"/>
</g>
</svg>
